<svg width="258" height="52" viewBox="0 0 258 52" fill="none" xmlns="http://www.w3.org/2000/svg">
<g filter="url(#filter0_d_30_1836)">
<mask id="path-1-inside-1_30_1836" fill="white">
<path fill-rule="evenodd" clip-rule="evenodd" d="M7.88962 2.62994H15.7789V0H243.109V2.6296H250.999V0H250.999V5.2592L256.259 5.25913V13.1484H258V34.187H256.259V42.0763L258 42.0764H250.999V47H250.999V44.706H243.109V47H15.7789V44.706H7.88962V47H7.8895V42.0764H0.000190735V47H0.00012207V42.0763H2.62966V34.187H0.00012207V13.149H2.62966V5.25966H0.00012207V0H0.000190735V5.25953H7.8895V0H7.88962V2.62994Z"/>
</mask>
<path d="M15.7789 2.62994V5.62994H18.7789V2.62994H15.7789ZM7.88962 2.62994H4.88962V5.62994H7.88962V2.62994ZM15.7789 0V-3H12.7789V0H15.7789ZM243.109 0H246.109V-3H243.109V0ZM243.109 2.6296H240.109V5.6296H243.109V2.6296ZM250.999 2.6296V5.6296H253.999V2.6296H250.999ZM250.999 0V-3H247.999V0H250.999ZM250.999 0H253.999V-3H250.999V0ZM250.999 5.2592H247.999V8.25923L250.999 8.2592L250.999 5.2592ZM256.259 5.25913H259.259V2.2591L256.259 2.25913L256.259 5.25913ZM256.259 13.1484H253.259V16.1484H256.259V13.1484ZM258 13.1484H261V10.1484H258V13.1484ZM258 34.187V37.187H261V34.187H258ZM256.259 34.187V31.187H253.259V34.187H256.259ZM256.259 42.0763H253.259V45.0761L256.259 45.0763L256.259 42.0763ZM258 42.0764V45.0764L258 39.0764L258 42.0764ZM250.999 42.0764V39.0764H247.999V42.0764H250.999ZM250.999 47V50H253.999V47H250.999ZM250.999 47H247.999V50H250.999V47ZM250.999 44.706H253.999V41.706H250.999V44.706ZM243.109 44.706V41.706H240.109V44.706H243.109ZM243.109 47V50H246.109V47H243.109ZM15.7789 47H12.7789V50H15.7789V47ZM15.7789 44.706H18.7789V41.706H15.7789V44.706ZM7.88962 44.706V41.706H4.88962V44.706H7.88962ZM7.88962 47V50H10.8896V47H7.88962ZM7.8895 47H4.8895V50H7.8895V47ZM7.8895 42.0764H10.8895V39.0764H7.8895V42.0764ZM0.000190735 42.0764V39.0764H-2.99981V42.0764H0.000190735ZM0.000190735 47V50H3.00019V47H0.000190735ZM0.00012207 47H-2.99988V50H0.00012207V47ZM0.00012207 42.0763V39.0763H-2.99988V42.0763H0.00012207ZM2.62966 42.0763V45.0763H5.62966V42.0763H2.62966ZM2.62966 34.187H5.62966V31.187H2.62966V34.187ZM0.00012207 34.187H-2.99988V37.187H0.00012207V34.187ZM0.00012207 13.149V10.149H-2.99988V13.149H0.00012207ZM2.62966 13.149V16.149H5.62966V13.149H2.62966ZM2.62966 5.25966H5.62966V2.25966H2.62966V5.25966ZM0.00012207 5.25966H-2.99988V8.25966H0.00012207V5.25966ZM0.00012207 0V-3H-2.99988V0H0.00012207ZM0.000190735 0H3.00019V-3H0.000190735V0ZM0.000190735 5.25953H-2.99981V8.25953H0.000190735V5.25953ZM7.8895 5.25953V8.25953H10.8895V5.25953H7.8895ZM7.8895 0V-3H4.8895V0H7.8895ZM7.88962 0H10.8896V-3H7.88962V0ZM15.7789 -0.370065H7.88962V5.62994H15.7789V-0.370065ZM12.7789 0V2.62994H18.7789V0H12.7789ZM243.109 -3H15.7789V3H243.109V-3ZM246.109 2.6296V0H240.109V2.6296H246.109ZM250.999 -0.370402H243.109V5.6296H250.999V-0.370402ZM247.999 0V2.6296H253.999V0H247.999ZM250.999 -3H250.999V3H250.999V-3ZM253.999 5.2592V0H247.999V5.2592H253.999ZM256.259 2.25913L250.999 2.2592L250.999 8.2592L256.259 8.25913L256.259 2.25913ZM259.259 13.1484V5.25913H253.259V13.1484H259.259ZM258 10.1484H256.259V16.1484H258V10.1484ZM261 34.187V13.1484H255V34.187H261ZM256.259 37.187H258V31.187H256.259V37.187ZM259.259 42.0763V34.187H253.259V42.0763H259.259ZM258 39.0764L256.259 39.0763L256.259 45.0763L258 45.0764L258 39.0764ZM250.999 45.0764H258V39.0764H250.999V45.0764ZM253.999 47V42.0764H247.999V47H253.999ZM250.999 50H250.999V44H250.999V50ZM247.999 44.706V47H253.999V44.706H247.999ZM243.109 47.706H250.999V41.706H243.109V47.706ZM246.109 47V44.706H240.109V47H246.109ZM15.7789 50H243.109V44H15.7789V50ZM12.7789 44.706V47H18.7789V44.706H12.7789ZM7.88962 47.706H15.7789V41.706H7.88962V47.706ZM10.8896 47V44.706H4.88962V47H10.8896ZM7.8895 50H7.88962V44H7.8895V50ZM4.8895 42.0764V47H10.8895V42.0764H4.8895ZM0.000190735 45.0764H7.8895V39.0764H0.000190735V45.0764ZM3.00019 47V42.0764H-2.99981V47H3.00019ZM0.00012207 50H0.000190735V44H0.00012207V50ZM-2.99988 42.0763V47H3.00012V42.0763H-2.99988ZM2.62966 39.0763H0.00012207V45.0763H2.62966V39.0763ZM-0.370339 34.187V42.0763H5.62966V34.187H-0.370339ZM0.00012207 37.187H2.62966V31.187H0.00012207V37.187ZM-2.99988 13.149V34.187H3.00012V13.149H-2.99988ZM2.62966 10.149H0.00012207V16.149H2.62966V10.149ZM-0.370339 5.25966V13.149H5.62966V5.25966H-0.370339ZM0.00012207 8.25966H2.62966V2.25966H0.00012207V8.25966ZM-2.99988 0V5.25966H3.00012V0H-2.99988ZM0.000190735 -3H0.00012207V3H0.000190735V-3ZM3.00019 5.25953V0H-2.99981V5.25953H3.00019ZM7.8895 2.25953H0.000190735V8.25953H7.8895V2.25953ZM4.8895 0V5.25953H10.8895V0H4.8895ZM7.88962 -3H7.8895V3H7.88962V-3ZM10.8896 2.62994V0H4.88962V2.62994H10.8896Z" fill="#FF3D3D" mask="url(#path-1-inside-1_30_1836)"/>
<rect x="8" y="3" width="243" height="41" fill="#FF3D3D"/>
<rect x="249" y="7" width="7" height="34" fill="#FF3D3D"/>
<rect x="3" y="7" width="7" height="33" fill="#FF3D3D"/>
</g>
<defs>
<filter id="filter0_d_30_1836" x="0" y="0" width="258" height="51.9167" filterUnits="userSpaceOnUse" color-interpolation-filters="sRGB">
<feFlood flood-opacity="0" result="BackgroundImageFix"/>
<feColorMatrix in="SourceAlpha" type="matrix" values="0 0 0 0 0 0 0 0 0 0 0 0 0 0 0 0 0 0 127 0" result="hardAlpha"/>
<feOffset dy="3.91667"/>
<feComposite in2="hardAlpha" operator="out"/>
<feColorMatrix type="matrix" values="0 0 0 0 0.101961 0 0 0 0 0.12549 0 0 0 0 0.207843 0 0 0 1 0"/>
<feBlend mode="normal" in2="BackgroundImageFix" result="effect1_dropShadow_30_1836"/>
<feBlend mode="normal" in="SourceGraphic" in2="effect1_dropShadow_30_1836" result="shape"/>
</filter>
</defs>
</svg>
