<svg width="19" height="14" viewBox="0 0 19 14" fill="none" xmlns="http://www.w3.org/2000/svg">
<path d="M15.8509 1.18771C14.6215 0.624864 13.3236 0.22556 11.9905 0C11.808 0.326126 11.643 0.661666 11.4959 1.00522C10.0759 0.791224 8.63172 0.791224 7.21164 1.00522C7.06455 0.661701 6.89948 0.326165 6.71712 0C5.38309 0.227464 4.08438 0.627717 2.85374 1.19066C0.410608 4.80531 -0.251686 8.33019 0.0794612 11.805C1.51022 12.8621 3.11165 13.6661 4.81413 14.1819C5.19748 13.6663 5.53669 13.1194 5.82818 12.5468C5.27455 12.34 4.7402 12.0849 4.23131 11.7844C4.36524 11.6873 4.49623 11.5872 4.6228 11.4901C6.10354 12.1864 7.71969 12.5475 9.356 12.5475C10.9923 12.5475 12.6085 12.1864 14.0892 11.4901C14.2172 11.5946 14.3482 11.6946 14.4807 11.7844C13.9708 12.0854 13.4355 12.341 12.8809 12.5483C13.172 13.1206 13.5112 13.6671 13.8949 14.1819C15.5989 13.6682 17.2015 12.8646 18.6325 11.8065C19.0211 7.77681 17.9688 4.28431 15.8509 1.18771ZM6.24763 9.66803C5.32483 9.66803 4.56246 8.83059 4.56246 7.80036C4.56246 6.77012 5.29834 5.92533 6.24469 5.92533C7.19103 5.92533 7.94752 6.77012 7.93133 7.80036C7.91514 8.83059 7.18809 9.66803 6.24763 9.66803ZM12.4644 9.66803C11.5401 9.66803 10.7807 8.83059 10.7807 7.80036C10.7807 6.77012 11.5165 5.92533 12.4644 5.92533C13.4122 5.92533 14.1628 6.77012 14.1466 7.80036C14.1304 8.83059 13.4048 9.66803 12.4644 9.66803Z" fill="white"/>
</svg>
