<svg width="148" height="132" viewBox="0 0 148 132" fill="none" xmlns="http://www.w3.org/2000/svg">
<path d="M30 66H37.3333V73.3333H81.3333V66H88.6667V58.6667H96V14.6667H88.6667V7.33333H81.3333V0H37.3333V7.33333H30V14.6667H22.6667V58.6667H30V66ZM37.3333 29.3333H44.6667V22H52V14.6667H66.6667V22H74V29.3333H81.3333V44H74V51.3333H66.6667V58.6667H52V51.3333H44.6667V44H37.3333V29.3333Z" fill="#8F50AD" fill-opacity="0.2"/>
<path d="M103.333 88H96V80.6667H15.3333V88H8V95.3333H0.666668V132H15.3333V110H22.6667V102.667H30V95.3333H81.3333V102.667H88.6667V110H96V132H110.667V95.3333H103.333V88Z" fill="#8F50AD" fill-opacity="0.2"/>
<path d="M118 66H125.333V58.6667H132.667V14.6667H125.333V7.33333H118V0H110.667H103.333V22H110.667V29.3333H118V36.6667V44H110.667V51.3333H103.333V73.3333H118V66Z" fill="#8F50AD" fill-opacity="0.2"/>
<path d="M140 95.3333V88H132.667V80.6667H118V102.667H125.333V110H132.667V132H147.333V95.3333H140Z" fill="#8F50AD" fill-opacity="0.2"/>
</svg>
