<svg width="19" height="19" viewBox="0 0 19 19" fill="none" xmlns="http://www.w3.org/2000/svg">
<g clip-path="url(#clip0_4_373)">
<path fill-rule="evenodd" clip-rule="evenodd" d="M15.6568 3.50706C15.8524 3.42472 16.0666 3.39632 16.2769 3.42482C16.4872 3.45331 16.6861 3.53767 16.8528 3.6691C17.0194 3.80053 17.1478 3.97423 17.2246 4.17212C17.3014 4.37001 17.3237 4.58486 17.2892 4.79431L15.4937 15.6853C15.3196 16.7358 14.1669 17.3383 13.2034 16.815C12.3975 16.3772 11.2005 15.7027 10.1238 14.9989C9.58551 14.6466 7.93647 13.5185 8.13914 12.7157C8.3133 12.0293 11.0841 9.4501 12.6675 7.91664C13.2889 7.31418 13.0055 6.96664 12.2716 7.52081C10.4484 8.89672 7.52322 10.9891 6.5558 11.5781C5.70239 12.0974 5.25747 12.1861 4.72547 12.0974C3.75489 11.9359 2.85476 11.6858 2.12009 11.381C1.12734 10.9693 1.17564 9.60447 2.1193 9.20706L15.6568 3.50706Z" fill="white"/>
</g>
<defs>
<clipPath id="clip0_4_373">
<rect width="19" height="19" fill="white"/>
</clipPath>
</defs>
</svg>
